<svg xmlns="http://www.w3.org/2000/svg" width="16" height="21" viewBox="0 0 16 21">
  <defs>
    <style>
      .cls-1 {
        fill: #2c87ce;
        fill-rule: evenodd;
      }
    </style>
  </defs>
  <path id="Icon" class="cls-1" d="M2156.48,801c-5.64,0-8.48,4.109-8.48,7.535,0,2.075.77,3.92,2.43,4.608a0.413,0.413,0,0,0,.6-0.3c0.05-.211.18-0.746,0.24-0.968a0.589,0.589,0,0,0-.17-0.672,3.505,3.505,0,0,1-.79-2.365,5.672,5.672,0,0,1,5.85-5.778c3.19,0,4.94,1.98,4.94,4.623,0,3.478-1.52,6.413-3.77,6.413a1.856,1.856,0,0,1-1.87-2.323,25.933,25.933,0,0,0,1.05-4.281,1.6,1.6,0,0,0-1.6-1.81c-1.27,0-2.29,1.334-2.29,3.122a4.685,4.685,0,0,0,.38,1.908s-1.3,5.594-1.53,6.573a13.987,13.987,0,0,0-.04,4.585,0.162,0.162,0,0,0,.29.068,13.01,13.01,0,0,0,2.14-3.947c0.15-.537.83-3.316,0.83-3.316a3.4,3.4,0,0,0,2.9,1.5c3.82,0,6.41-3.535,6.41-8.267,0-3.578-2.98-6.91-7.52-6.91" transform="translate(-2148 -801)"/>
</svg>
