<svg xmlns="http://www.w3.org/2000/svg" width="16" height="13" viewBox="0 0 16 13">
  <defs>
    <style>
      .cls-1 {
        fill: #2c87ce;
        fill-rule: evenodd;
      }
    </style>
  </defs>
  <path id="Icon" class="cls-1" d="M2110.56,806.561a5.794,5.794,0,0,1-1.83.52,3.548,3.548,0,0,0,1.38-1.793,5.419,5.419,0,0,1-2.06.729v0a3.3,3.3,0,0,0-5.69,2.281,3.544,3.544,0,0,0,.08.735h0a9.52,9.52,0,0,1-6.99-3.424,3.309,3.309,0,0,0,1,4.361,2.115,2.115,0,0,1-1.44-.373,3.182,3.182,0,0,0,2.55,3.225,2.608,2.608,0,0,1-1.38.105,3.132,3.132,0,0,0,2.95,2.241,5.4,5.4,0,0,1-4.57,1.369,9.921,9.921,0,0,0,5.16,1.46,9.164,9.164,0,0,0,9.24-9.64V808.25A5.537,5.537,0,0,0,2110.56,806.561Z" transform="translate(-2094.56 -805)"/>
</svg>
