<svg xmlns="http://www.w3.org/2000/svg" width="17.16" height="18.344" viewBox="0 0 17.16 18.344">
  <defs>
    <style>
      .cls-1 {
        fill: #2c87ce;
        fill-rule: evenodd;
      }
    </style>
  </defs>
  <path class="cls-1" d="M2216.1,811.8h-11.62a2.908,2.908,0,0,0-2.76,3.042v4a2.908,2.908,0,0,0,2.76,3.042h11.62a2.915,2.915,0,0,0,2.77-3.042v-4A2.915,2.915,0,0,0,2216.1,811.8Zm-9.31,2.884h-1.13v5.645h-1.1v-5.645h-1.14v-0.962h3.37v0.962Zm3.21,5.645h-0.97V819.79a2.135,2.135,0,0,1-.56.451,1.213,1.213,0,0,1-.57.155,0.611,0.611,0,0,1-.51-0.217,1.072,1.072,0,0,1-.17-0.653v-4.077h0.97v3.74a0.41,0.41,0,0,0,.06.25,0.251,0.251,0,0,0,.2.078,0.579,0.579,0,0,0,.28-0.1,1.268,1.268,0,0,0,.3-0.261v-3.7H2210v4.875Zm3.54-1.006a1.233,1.233,0,0,1-.23.794,0.814,0.814,0,0,1-.66.275,1.1,1.1,0,0,1-.51-0.106,1.262,1.262,0,0,1-.42-0.33v0.373h-0.99v-6.607h0.99v2.128a1.438,1.438,0,0,1,.42-0.338,0.966,0.966,0,0,1,.45-0.116,0.824,0.824,0,0,1,.7.311,1.407,1.407,0,0,1,.25.911v2.7Zm3.38-1.314h-1.87v0.918a0.99,0.99,0,0,0,.1.535,0.352,0.352,0,0,0,.33.148,0.414,0.414,0,0,0,.34-0.126,1.1,1.1,0,0,0,.09-0.557V818.7h1.01v0.251a1.546,1.546,0,0,1-.37,1.13,1.449,1.449,0,0,1-1.09.377,1.36,1.36,0,0,1-1.04-.4,1.553,1.553,0,0,1-.37-1.106v-2.19a1.4,1.4,0,0,1,.41-1.034,1.479,1.479,0,0,1,1.07-.4,1.384,1.384,0,0,1,1.03.369,1.463,1.463,0,0,1,.36,1.063V818Zm-1.43-1.823a0.4,0.4,0,0,0-.34.135,0.709,0.709,0,0,0-.1.438v0.492h0.86v-0.492a0.709,0.709,0,0,0-.1-0.438A0.36,0.36,0,0,0,2215.49,816.181Zm-3.36-.016a0.5,0.5,0,0,0-.21.047,0.741,0.741,0,0,0-.2.149V819.4a0.952,0.952,0,0,0,.23.174,0.591,0.591,0,0,0,.24.052,0.314,0.314,0,0,0,.26-0.1,0.577,0.577,0,0,0,.08-0.336v-2.518a0.58,0.58,0,0,0-.1-0.375A0.369,0.369,0,0,0,2212.13,816.165Zm-6.13-5.36h1.23v-3.02l1.44-4.26h-1.25l-0.77,2.91h-0.08l-0.8-2.91h-1.24l1.47,4.4v2.884Zm4.34,0.135a1.688,1.688,0,0,0,1.18-.392,1.407,1.407,0,0,0,.42-1.08v-2.774a1.286,1.286,0,0,0-.43-1.006,1.617,1.617,0,0,0-1.12-.389,1.824,1.824,0,0,0-1.19.37,1.238,1.238,0,0,0-.44.993v2.784a1.411,1.411,0,0,0,.43,1.089A1.614,1.614,0,0,0,2210.34,810.94Zm-0.45-4.318a0.369,0.369,0,0,1,.12-0.285,0.505,0.505,0,0,1,.33-0.107,0.525,0.525,0,0,1,.35.107,0.356,0.356,0,0,1,.14.285v2.925a0.441,0.441,0,0,1-.14.34,0.472,0.472,0,0,1-.35.123,0.424,0.424,0,0,1-.33-0.121,0.466,0.466,0,0,1-.12-0.342v-2.925Zm3.71,4.261a1.39,1.39,0,0,0,.64-0.171,2.338,2.338,0,0,0,.63-0.5v0.595h1.09v-5.37h-1.09v4.076a1.51,1.51,0,0,1-.34.289,0.637,0.637,0,0,1-.31.113,0.254,0.254,0,0,1-.22-0.087,0.475,0.475,0,0,1-.07-0.274v-4.117h-1.1v4.489a1.117,1.117,0,0,0,.2.717A0.69,0.69,0,0,0,2213.6,810.883Z" transform="translate(-2201.72 -803.531)"/>
</svg>
